<svg width="96" height="96" viewBox="0 0 96 96" xmlns="http://www.w3.org/2000/svg" role="img" aria-labelledby="foodlinkTitle">
  <title id="foodlinkTitle">FoodLink Society</title>
  <defs>
    <linearGradient id="flGradient" x1="0%" y1="0%" x2="100%" y2="100%">
      <stop offset="0%" stop-color="#123b63"/>
      <stop offset="60%" stop-color="#1f5fa7"/>
      <stop offset="100%" stop-color="#28a4a9"/>
    </linearGradient>
  </defs>
  <rect width="96" height="96" rx="22" fill="url(#flGradient)"/>
  <path d="M24 52c0-14.359 11.641-26 26-26s26 11.641 26 26a26.02 26.02 0 0 1-6.467 17.2 3.8 3.8 0 0 1-5.702.116l-9.629-10.058a4 4 0 0 0-5.835 0l-9.629 10.058a3.8 3.8 0 0 1-5.702-.116A26.02 26.02 0 0 1 24 52Z" fill="#ffffff" opacity="0.95"/>
  <path d="M36 52c0-7.732 6.268-14 14-14s14 6.268 14 14" stroke="#28a4a9" stroke-width="4" stroke-linecap="round" stroke-linejoin="round" opacity="0.7"/>
  <circle cx="48" cy="34" r="6" fill="#f7b733"/>
</svg>
